<svg xmlns="http://www.w3.org/2000/svg" width="1619" height="850" fill="none"><path fill="url(#a)" d="M0 0h1619v850H0z"/><g fill="#fff" opacity=".1"><path d="M617.648 114.007s10.632 3.685 7.041 6.125c-3.591 2.441-15.513 33.866-13.049 37.95 2.465 4.083 10.186-9.388 14.692-4.905 4.506 4.482-2.042 15.513-8.989 14.691-6.947-.821-10.209-7.745-8.566-16.428 1.643-8.684 7.252-22.225 7.956-25.182.704-2.957-2.464-4.483-7.346-1.643-4.881 2.84-13.471-2.042-15.935-7.346-2.464-5.304-.399-14.269-.399-14.269s-1.62 4.483 6.524 6.524c8.144 2.042 15.232 3.263 18.071 4.483ZM15.65 291.809a158.32 158.32 0 0 0 15.465-8.988c7.51-5.023 11.735-2.605 10.655.727-1.08 3.333 5.374 26.966 14.997 39.452 9.622 12.485 8.73-1.761 15.982-4.225 7.252-2.464 11.172 4.694 5.61 13.002-5.563 8.308-18.142 5.797-19.808.704-1.667-5.093-13.448-27.412-16.945-32.856-3.497-5.445-6.079-5.14-12.415 1.173a23.723 23.723 0 0 1-21.404 7.041s12.978 24.877 16.945 32.856c3.966 7.98 7.252 18.071 13.095 17.86 5.844-.211 12.439-11.734 17.086-4.694 4.647 7.041-9.223 19.034-16.687 15.631-7.463-3.403-12.04-19.034-17.578-29.829C15.11 328.867-.92 300.422.042 296.362c.963-4.06 8.426.118 15.607-4.553ZM166.134 339.662a112.842 112.842 0 0 0 10.937-6.36c5.327-3.544 8.238-1.831 7.533.516-.704 2.347 3.802 19.08 10.608 27.905 6.807 8.824 6.173-1.244 11.312-2.981 5.14-1.737 7.886 3.333 3.943 9.2-3.942 5.867-12.814 4.084-14.081.493a216.14 216.14 0 0 0-11.969-23.187c-2.488-3.802-4.319-3.638-8.801.821a16.826 16.826 0 0 1-15.138 4.952s9.177 17.578 11.993 23.187c2.816 5.609 5.116 12.791 9.388 12.65 4.271-.141 8.777-8.355 12.063-3.286 3.285 5.07-6.525 13.472-11.735 11.054-5.21-2.417-8.519-13.447-12.415-21.122-3.896-7.674-15.255-27.74-14.574-30.51.68-2.769 5.797-.023 10.936-3.332ZM701.843 176.382a115.51 115.51 0 0 0 10.89-6.337c5.328-3.567 8.238-1.854 7.534.493-.704 2.347 3.802 19.08 10.608 27.928 6.806 8.848 6.172-1.267 11.312-3.004 5.139-1.737 7.885 3.356 3.942 9.2-3.942 5.844-12.814 4.083-14.081.493a216.155 216.155 0 0 0-11.969-23.188c-2.488-3.802-4.318-3.637-8.801.822a16.733 16.733 0 0 1-14.973 4.952s9.2 17.578 11.992 23.187c2.793 5.609 5.117 12.791 9.388 12.65 4.271-.141 8.777-8.355 12.063-3.286 3.286 5.07-6.524 13.471-11.734 11.054-5.211-2.417-8.52-13.448-12.415-21.122-3.896-7.674-15.255-27.764-14.575-30.51.681-2.746 5.75-.023 10.819-3.332ZM234.744 168.509s12.11 4.201 7.932 7.041c-4.177 2.839-17.695 38.606-14.903 43.276 2.793 4.671 11.735-10.701 16.757-5.585 5.023 5.116-2.347 17.672-10.232 16.733-7.886-.939-11.735-8.824-9.787-18.611 1.948-9.786 8.379-25.581 9.388-28.843 1.009-3.262-2.793-5.116-8.379-1.854-5.585 3.262-15.348-2.347-18.141-8.379-2.793-6.031-.469-16.287-.469-16.287s-1.855 5.116 7.439 7.44c9.294 2.323 17.086 3.684 20.395 5.069ZM636.736 673.509s12.086 4.201 7.909 7.041c-4.178 2.839-17.696 38.606-14.903 43.253 2.793 4.647 11.735-10.702 16.757-5.586 5.022 5.117-2.347 17.696-10.232 16.757-7.886-.939-11.735-8.848-9.764-18.611 1.972-9.763 8.379-25.581 9.388-28.843 1.009-3.262-2.793-5.116-8.378-1.854-5.586 3.262-15.349-2.347-18.142-8.379-2.793-6.031-.469-16.287-.469-16.287s-1.854 5.116 7.439 7.44c9.294 2.323 17.133 3.684 20.395 5.069ZM196.362 599.886s12.11 4.201 7.909 7.041c-4.201 2.839-17.672 38.606-14.879 43.3 2.793 4.694 11.617-10.702 16.757-5.586 5.139 5.116-2.347 17.672-10.256 16.734-7.909-.939-11.617-8.825-9.763-18.611 1.854-9.787 8.378-25.582 9.387-28.844 1.009-3.262-2.792-5.116-8.378-1.854-5.586 3.262-15.372-2.347-18.165-8.378-2.793-6.032-.446-16.288-.446-16.288s-1.878 5.117 7.44 7.44c9.317 2.323 17.132 3.755 20.394 5.046ZM737.808 406.9a185.35 185.35 0 0 0 17.625-10.139c8.59-5.75 13.284-3.004 12.157.822-1.126 3.825 6.126 30.72 17.086 44.99 10.96 14.269 9.974-2.042 18.235-4.835s12.744 5.398 6.384 14.832c-6.36 9.435-20.677 6.595-22.554.798-1.878-5.797-15.349-31.237-19.315-37.386-3.966-6.149-7.041-5.867-14.081 1.338a27.038 27.038 0 0 1-24.385 7.979s14.692 28.257 19.198 37.293c4.506 9.035 8.261 20.629 14.95 20.394 6.688-.235 14.081-13.471 19.479-5.304s-10.538 21.709-19.033 17.837c-8.496-3.873-13.753-21.686-20.043-34.007-6.29-12.321-24.595-44.732-23.469-49.285 1.127-4.553 9.599 0 17.766-5.327ZM9.642 581.322a95.533 95.533 0 0 0 9.387-5.468c4.577-3.051 7.041-1.573 6.478.446-.563 2.018 3.262 16.428 9.106 23.985 5.844 7.557 5.327-1.08 9.716-2.582 4.389-1.502 6.806 2.887 3.403 7.909-3.403 5.023-11.007 3.521-12.016.446a188.084 188.084 0 0 0-10.303-19.948c-2.112-3.262-3.708-3.122-7.557.727a14.43 14.43 0 0 1-13.002 4.248s7.886 15.114 10.303 19.925c2.417 4.811 4.389 11.007 7.956 10.866 3.567-.14 7.557-7.181 10.373-2.816 2.817 4.365-5.609 11.57-10.138 9.388-4.53-2.183-7.323-11.57-10.679-18.142C9.313 603.735-.45 586.462.137 583.998c.587-2.465 5.14.164 9.505-2.676Z"/></g><defs><linearGradient id="a" x1="-120.919" x2="1462.91" y1="908" y2="87.835" gradientUnits="userSpaceOnUse"><stop stop-color="#FF9292"/><stop offset="1" stop-color="#DE5150"/></linearGradient></defs></svg>
