<svg width="24" height="21" viewBox="0 0 24 21" fill="none" xmlns="http://www.w3.org/2000/svg">
<path d="M23 1.23955C22.0424 1.91503 20.9821 2.43166 19.86 2.76955C19.2577 2.07706 18.4573 1.58624 17.567 1.36347C16.6767 1.14071 15.7395 1.19674 14.8821 1.524C14.0247 1.85126 13.2884 2.43395 12.773 3.19326C12.2575 3.95258 11.9877 4.85188 12 5.76955V6.76955C10.2426 6.81512 8.50127 6.42536 6.93101 5.63499C5.36074 4.84463 4.01032 3.67818 3 2.23955C3 2.23955 -1 11.2395 8 15.2395C5.94053 16.6375 3.48716 17.3385 1 17.2395C10 22.2395 21 17.2395 21 5.73955C20.9991 5.461 20.9723 5.18314 20.92 4.90955C21.9406 3.90304 22.6608 2.63226 23 1.23955V1.23955Z" stroke="#FF4948" stroke-width="2" stroke-linecap="round" stroke-linejoin="round"/>
</svg>
