<svg width="22" height="23" viewBox="0 0 22 23" fill="none" xmlns="http://www.w3.org/2000/svg">
<path d="M16 1.22949H6C3.23858 1.22949 1 3.46807 1 6.22949V16.2295C1 18.9909 3.23858 21.2295 6 21.2295H16C18.7614 21.2295 21 18.9909 21 16.2295V6.22949C21 3.46807 18.7614 1.22949 16 1.22949Z" stroke="#FF4948" stroke-width="2" stroke-linecap="round" stroke-linejoin="round"/>
<path d="M14.9997 10.5998C15.1231 11.432 14.981 12.282 14.5935 13.0288C14.206 13.7756 13.5929 14.3812 12.8413 14.7595C12.0898 15.1377 11.2382 15.2694 10.4075 15.1357C9.57683 15.0021 8.80947 14.6099 8.21455 14.015C7.61962 13.42 7.22744 12.6527 7.09377 11.822C6.96011 10.9913 7.09177 10.1397 7.47003 9.38817C7.84829 8.63665 8.45389 8.02353 9.20069 7.63604C9.94749 7.24854 10.7975 7.10638 11.6297 7.22979C12.4786 7.35568 13.2646 7.75126 13.8714 8.3581C14.4782 8.96494 14.8738 9.75087 14.9997 10.5998Z" stroke="#FF4948" stroke-width="2" stroke-linecap="round" stroke-linejoin="round"/>
<path d="M16.5 5.72949H16.51" stroke="#FF4948" stroke-width="2" stroke-linecap="round" stroke-linejoin="round"/>
</svg>
